<svg id="visual" viewBox="0 0 960 540" width="960" height="540" xmlns="http://www.w3.org/2000/svg" xmlns:xlink="http://www.w3.org/1999/xlink" version="1.1"><g stroke-width="1" stroke-linejoin="bevel"><path d="M439.7 258L524.3 184L435.7 192Z" fill="#081a28" stroke="#081a28"></path><path d="M439.7 258L543.3 259L524.3 184Z" fill="#0c2435" stroke="#0c2435"></path><path d="M631 183L521.3 90L524.3 184Z" fill="#1d4e6b" stroke="#1d4e6b"></path><path d="M524.3 184L521.3 90L435.7 192Z" fill="#19435d" stroke="#19435d"></path><path d="M439.7 258L542.3 349L543.3 259Z" fill="#15384f" stroke="#15384f"></path><path d="M521.3 90L435.7 79L435.7 192Z" fill="#277297" stroke="#277297"></path><path d="M637 273L631 183L543.3 259Z" fill="#19435d" stroke="#19435d"></path><path d="M543.3 259L631 183L524.3 184Z" fill="#205a7a" stroke="#205a7a"></path><path d="M542.3 349L637 273L543.3 259Z" fill="#112e42" stroke="#112e42"></path><path d="M308 279L414.7 370L439.7 258Z" fill="#00101c" stroke="#00101c"></path><path d="M439.7 258L414.7 370L542.3 349Z" fill="#15384f" stroke="#15384f"></path><path d="M308 279L439.7 258L435.7 192Z" fill="#19435d" stroke="#19435d"></path><path d="M435.7 79L320 165L435.7 192Z" fill="#19435d" stroke="#19435d"></path><path d="M320 165L308 279L435.7 192Z" fill="#0c2435" stroke="#0c2435"></path><path d="M435.7 79L332 83L320 165Z" fill="#19435d" stroke="#19435d"></path><path d="M752.7 177L630 75L631 183Z" fill="#081a28" stroke="#081a28"></path><path d="M631 183L630 75L521.3 90Z" fill="#00101c" stroke="#00101c"></path><path d="M521.3 90L538.3 0L435.7 79Z" fill="#081a28" stroke="#081a28"></path><path d="M542.3 349L642 364L637 273Z" fill="#205a7a" stroke="#205a7a"></path><path d="M637 273L744.7 279L631 183Z" fill="#1d4e6b" stroke="#1d4e6b"></path><path d="M651 439L642 364L542.3 349Z" fill="#1d4e6b" stroke="#1d4e6b"></path><path d="M308 279L305 366L414.7 370Z" fill="#277297" stroke="#277297"></path><path d="M630 75L538.3 0L521.3 90Z" fill="#277297" stroke="#277297"></path><path d="M435.7 79L413.7 0L332 83Z" fill="#15384f" stroke="#15384f"></path><path d="M538.3 0L413.7 0L435.7 79Z" fill="#0c2435" stroke="#0c2435"></path><path d="M312 437L422.7 453L414.7 370Z" fill="#15384f" stroke="#15384f"></path><path d="M414.7 370L527.3 460L542.3 349Z" fill="#205a7a" stroke="#205a7a"></path><path d="M422.7 453L527.3 460L414.7 370Z" fill="#15384f" stroke="#15384f"></path><path d="M737.7 355L637 273L642 364Z" fill="#277297" stroke="#277297"></path><path d="M737.7 355L744.7 279L637 273Z" fill="#15384f" stroke="#15384f"></path><path d="M215.3 174L214.3 260L308 279Z" fill="#112e42" stroke="#112e42"></path><path d="M308 279L224.3 347L305 366Z" fill="#112e42" stroke="#112e42"></path><path d="M215.3 174L308 279L320 165Z" fill="#277297" stroke="#277297"></path><path d="M745.7 0L639 0L630 75Z" fill="#112e42" stroke="#112e42"></path><path d="M630 75L639 0L538.3 0Z" fill="#277297" stroke="#277297"></path><path d="M413.7 0L327 0L332 83Z" fill="#19435d" stroke="#19435d"></path><path d="M208.3 87L215.3 174L320 165Z" fill="#297ea6" stroke="#297ea6"></path><path d="M208.3 87L320 165L332 83Z" fill="#19435d" stroke="#19435d"></path><path d="M744.7 279L752.7 177L631 183Z" fill="#205a7a" stroke="#205a7a"></path><path d="M527.3 460L651 439L542.3 349Z" fill="#19435d" stroke="#19435d"></path><path d="M305 366L312 437L414.7 370Z" fill="#246688" stroke="#246688"></path><path d="M206.3 445L312 437L305 366Z" fill="#0c2435" stroke="#0c2435"></path><path d="M651 439L737.7 355L642 364Z" fill="#297ea6" stroke="#297ea6"></path><path d="M214.3 260L224.3 347L308 279Z" fill="#19435d" stroke="#19435d"></path><path d="M327 0L208.3 87L332 83Z" fill="#297ea6" stroke="#297ea6"></path><path d="M215.3 174L117.7 194L214.3 260Z" fill="#15384f" stroke="#15384f"></path><path d="M752.7 177L760.7 91L630 75Z" fill="#297ea6" stroke="#297ea6"></path><path d="M849.3 185L760.7 91L752.7 177Z" fill="#277297" stroke="#277297"></path><path d="M426.7 540L523.3 540L527.3 460Z" fill="#297ea6" stroke="#297ea6"></path><path d="M527.3 460L634 540L651 439Z" fill="#277297" stroke="#277297"></path><path d="M426.7 540L527.3 460L422.7 453Z" fill="#00101c" stroke="#00101c"></path><path d="M324 540L426.7 540L422.7 453Z" fill="#00101c" stroke="#00101c"></path><path d="M760.7 91L745.7 0L630 75Z" fill="#1d4e6b" stroke="#1d4e6b"></path><path d="M737.7 540L753.7 446L651 439Z" fill="#277297" stroke="#277297"></path><path d="M651 439L753.7 446L737.7 355Z" fill="#0c2435" stroke="#0c2435"></path><path d="M850.3 259L752.7 177L744.7 279Z" fill="#277297" stroke="#277297"></path><path d="M850.3 259L849.3 185L752.7 177Z" fill="#246688" stroke="#246688"></path><path d="M523.3 540L634 540L527.3 460Z" fill="#112e42" stroke="#112e42"></path><path d="M327 0L209.3 0L208.3 87Z" fill="#277297" stroke="#277297"></path><path d="M224.3 347L206.3 445L305 366Z" fill="#297ea6" stroke="#297ea6"></path><path d="M312 437L324 540L422.7 453Z" fill="#00101c" stroke="#00101c"></path><path d="M115.7 356L206.3 445L224.3 347Z" fill="#00101c" stroke="#00101c"></path><path d="M115.7 356L224.3 347L214.3 260Z" fill="#081a28" stroke="#081a28"></path><path d="M208.3 540L324 540L312 437Z" fill="#0c2435" stroke="#0c2435"></path><path d="M115.7 90L215.3 174L208.3 87Z" fill="#246688" stroke="#246688"></path><path d="M115.7 90L117.7 194L215.3 174Z" fill="#15384f" stroke="#15384f"></path><path d="M850.3 259L744.7 279L848.3 372Z" fill="#1d4e6b" stroke="#1d4e6b"></path><path d="M760.7 91L853.3 0L745.7 0Z" fill="#00101c" stroke="#00101c"></path><path d="M848.3 372L744.7 279L737.7 355Z" fill="#15384f" stroke="#15384f"></path><path d="M117.7 194L105.7 255L214.3 260Z" fill="#081a28" stroke="#081a28"></path><path d="M209.3 0L115.7 90L208.3 87Z" fill="#112e42" stroke="#112e42"></path><path d="M117.7 194L0 183L105.7 255Z" fill="#15384f" stroke="#15384f"></path><path d="M105.7 255L115.7 356L214.3 260Z" fill="#081a28" stroke="#081a28"></path><path d="M863.3 435L848.3 372L753.7 446Z" fill="#246688" stroke="#246688"></path><path d="M753.7 446L848.3 372L737.7 355Z" fill="#246688" stroke="#246688"></path><path d="M960 194L849.3 185L850.3 259Z" fill="#1d4e6b" stroke="#1d4e6b"></path><path d="M960 194L866.3 90L849.3 185Z" fill="#15384f" stroke="#15384f"></path><path d="M849.3 185L866.3 90L760.7 91Z" fill="#112e42" stroke="#112e42"></path><path d="M634 540L737.7 540L651 439Z" fill="#1d4e6b" stroke="#1d4e6b"></path><path d="M106.7 540L208.3 540L206.3 445Z" fill="#246688" stroke="#246688"></path><path d="M206.3 445L208.3 540L312 437Z" fill="#0c2435" stroke="#0c2435"></path><path d="M866.3 90L853.3 0L760.7 91Z" fill="#277297" stroke="#277297"></path><path d="M838.3 540L863.3 435L753.7 446Z" fill="#112e42" stroke="#112e42"></path><path d="M960 280L960 194L850.3 259Z" fill="#246688" stroke="#246688"></path><path d="M0 348L92.7 443L115.7 356Z" fill="#00101c" stroke="#00101c"></path><path d="M115.7 356L92.7 443L206.3 445Z" fill="#19435d" stroke="#19435d"></path><path d="M0 274L115.7 356L105.7 255Z" fill="#1d4e6b" stroke="#1d4e6b"></path><path d="M209.3 0L91.7 0L115.7 90Z" fill="#19435d" stroke="#19435d"></path><path d="M115.7 90L0 183L117.7 194Z" fill="#15384f" stroke="#15384f"></path><path d="M737.7 540L838.3 540L753.7 446Z" fill="#19435d" stroke="#19435d"></path><path d="M960 280L848.3 372L960 362Z" fill="#00101c" stroke="#00101c"></path><path d="M960 280L850.3 259L848.3 372Z" fill="#1d4e6b" stroke="#1d4e6b"></path><path d="M866.3 90L960 0L853.3 0Z" fill="#081a28" stroke="#081a28"></path><path d="M960 362L848.3 372L863.3 435Z" fill="#297ea6" stroke="#297ea6"></path><path d="M0 78L0 183L115.7 90Z" fill="#112e42" stroke="#112e42"></path><path d="M0 183L0 274L105.7 255Z" fill="#19435d" stroke="#19435d"></path><path d="M92.7 443L106.7 540L206.3 445Z" fill="#205a7a" stroke="#205a7a"></path><path d="M0 540L106.7 540L92.7 443Z" fill="#1d4e6b" stroke="#1d4e6b"></path><path d="M960 194L960 88L866.3 90Z" fill="#081a28" stroke="#081a28"></path><path d="M960 460L960 362L863.3 435Z" fill="#297ea6" stroke="#297ea6"></path><path d="M0 274L0 348L115.7 356Z" fill="#00101c" stroke="#00101c"></path><path d="M91.7 0L0 78L115.7 90Z" fill="#277297" stroke="#277297"></path><path d="M960 88L960 0L866.3 90Z" fill="#1d4e6b" stroke="#1d4e6b"></path><path d="M91.7 0L0 0L0 78Z" fill="#205a7a" stroke="#205a7a"></path><path d="M0 348L0 445L92.7 443Z" fill="#277297" stroke="#277297"></path><path d="M838.3 540L960 460L863.3 435Z" fill="#081a28" stroke="#081a28"></path><path d="M838.3 540L960 540L960 460Z" fill="#0c2435" stroke="#0c2435"></path><path d="M0 445L0 540L92.7 443Z" fill="#15384f" stroke="#15384f"></path></g></svg>